# xmcd
#
# Track frame offsets:
#	150
#	13725
#	30524
#	48223
#	69701
#	81744
#	104658
#	120256
#	144884
#	161728
#
# Disc length: 2369 seconds
#
# Revision: 1
# Processed by: cddbd v1.5.2PL0 Copyright (c) Steve Scherf et al.
# Submitted via: audiograbber 1.83.01
#
DISCID=82093f0a
DTITLE=Kenny Walker - Spokes And Spurs
DYEAR=1900
DGENRE=Country
TTITLE0=Spokes and spurs
TTITLE1=Taste of heaven
TTITLE2=Goin' back home
TTITLE3=The key
TTITLE4=Weekend gigs
TTITLE5=Love's comin' home
TTITLE6=Frustrated
TTITLE7=She forgot
TTITLE8=Night hawk
TTITLE9=My every song
EXTD=
EXTT0=
EXTT1=
EXTT2=
EXTT3=
EXTT4=
EXTT5=
EXTT6=
EXTT7=
EXTT8=
EXTT9=
PLAYORDER=
